<?xml version="1.0" encoding="UTF-8"?>
<!DOCTYPE svg PUBLIC "-//W3C//DTD SVG 1.1//EN" "http://www.w3.org/Graphics/SVG/1.1/DTD/svg11.dtd">
<svg xmlns="http://www.w3.org/2000/svg" version="1.1" width="500px" height="500px" style="shape-rendering:geometricPrecision; text-rendering:geometricPrecision; image-rendering:optimizeQuality; fill-rule:evenodd; clip-rule:evenodd" xmlns:xlink="http://www.w3.org/1999/xlink">
<g><path style="opacity:1" fill="#25231b" d="M 235.5,120.5 C 236.833,120.5 237.5,121.167 237.5,122.5C 236.5,122.167 235.833,121.5 235.5,120.5 Z"/></g>
<g><path style="opacity:1" fill="#60533c" d="M 229.5,120.5 C 228.5,121.167 227.5,121.833 226.5,122.5C 225.167,122.5 223.833,122.5 222.5,122.5C 224.438,120.837 226.772,120.171 229.5,120.5 Z"/></g>
<g><path style="opacity:1" fill="#5c4d2f" d="M 222.5,122.5 C 221.5,123.167 220.5,123.833 219.5,124.5C 218.167,124.5 216.833,124.5 215.5,124.5C 217.438,122.837 219.772,122.171 222.5,122.5 Z"/></g>
<g><path style="opacity:1" fill="#43311b" d="M 215.5,124.5 C 213.095,125.768 210.428,126.435 207.5,126.5C 209.838,124.96 212.505,124.294 215.5,124.5 Z"/></g>
<g><path style="opacity:1" fill="#e8d9ae" d="M 235.5,120.5 C 235.833,121.5 236.5,122.167 237.5,122.5C 238.167,122.5 238.5,122.833 238.5,123.5C 238.5,127.167 238.5,130.833 238.5,134.5C 237.766,133.122 237.099,131.622 236.5,130C 235.065,130.311 233.732,130.145 232.5,129.5C 231.637,127.229 231.637,124.895 232.5,122.5C 230.5,122.5 228.5,122.5 226.5,122.5C 227.5,121.833 228.5,121.167 229.5,120.5C 231.451,119.359 233.451,119.359 235.5,120.5 Z"/></g>
<g><path style="opacity:1" fill="#3f2e16" d="M 207.5,126.5 C 205.162,128.04 202.495,128.706 199.5,128.5C 201.905,127.232 204.572,126.565 207.5,126.5 Z"/></g>
<g><path style="opacity:1" fill="#bd9049" d="M 215.5,124.5 C 216.833,124.5 218.167,124.5 219.5,124.5C 219.389,125.117 219.056,125.617 218.5,126C 198.889,131.713 179.223,137.213 159.5,142.5C 162.732,139.752 166.398,137.752 170.5,136.5C 173.152,136.59 175.485,135.924 177.5,134.5C 185.279,133.724 192.613,131.724 199.5,128.5C 202.495,128.706 205.162,128.04 207.5,126.5C 210.428,126.435 213.095,125.768 215.5,124.5 Z"/></g>
<g><path style="opacity:1" fill="#382713" d="M 199.5,128.5 C 192.613,131.724 185.279,133.724 177.5,134.5C 184.574,131.926 191.907,129.926 199.5,128.5 Z"/></g>
<g><path style="opacity:1" fill="#553918" d="M 177.5,134.5 C 175.485,135.924 173.152,136.59 170.5,136.5C 172.515,135.076 174.848,134.41 177.5,134.5 Z"/></g>
<g><path style="opacity:1" fill="#f0c76a" d="M 219.5,124.5 C 221.857,124.337 224.19,124.503 226.5,125C 228.439,129.458 231.772,131.625 236.5,131.5C 236.824,138.354 236.491,145.021 235.5,151.5C 233.797,152.66 233.131,151.993 233.5,149.5C 232.167,149.5 230.833,149.5 229.5,149.5C 229.245,152.016 228.411,154.35 227,156.5C 226,155.167 225,153.833 224,152.5C 222.655,155.262 220.655,156.262 218,155.5C 212.291,156.984 206.624,158.65 201,160.5C 200,160.167 199,159.833 198,159.5C 192.383,161.158 186.716,162.491 181,163.5C 178.095,163.124 175.262,162.457 172.5,161.5C 165,162.953 157.834,164.953 151,167.5C 148.304,166.328 146.637,164.328 146,161.5C 145.667,162.167 145.333,162.833 145,163.5C 144.802,161.618 144.302,159.952 143.5,158.5C 144.268,148.754 149.601,143.421 159.5,142.5C 179.223,137.213 198.889,131.713 218.5,126C 219.056,125.617 219.389,125.117 219.5,124.5 Z"/></g>
<g><path style="opacity:1" fill="#8e6227" d="M 170.5,136.5 C 166.398,137.752 162.732,139.752 159.5,142.5C 149.601,143.421 144.268,148.754 143.5,158.5C 143.5,166.5 143.5,174.5 143.5,182.5C 143.5,182.833 143.5,183.167 143.5,183.5C 143.5,184.5 143.5,185.5 143.5,186.5C 142.698,187.952 142.198,189.618 142,191.5C 141.503,189.19 141.337,186.857 141.5,184.5C 141.948,172.132 142.781,159.799 144,147.5C 145.707,145.963 147.207,144.296 148.5,142.5C 155.477,139.63 162.81,137.63 170.5,136.5 Z"/></g>
<g><path style="opacity:1" fill="#edc776" d="M 235.5,151.5 C 235.204,157.637 233.704,157.971 231,152.5C 229.883,153.949 229.216,155.616 229,157.5C 227.89,159.037 226.39,159.703 224.5,159.5C 218.708,158.918 213.041,160.084 207.5,163C 193.524,164.642 179.69,166.475 166,168.5C 164.856,168.089 163.689,167.756 162.5,167.5C 159.313,168.865 155.98,169.699 152.5,170C 151.299,170.903 150.465,172.069 150,173.5C 149.667,173.167 149.333,172.833 149,172.5C 148.092,174.439 146.592,175.439 144.5,175.5C 144.519,177.06 144.852,178.56 145.5,180C 145.361,181.301 144.695,182.134 143.5,182.5C 143.5,174.5 143.5,166.5 143.5,158.5C 144.302,159.952 144.802,161.618 145,163.5C 145.333,162.833 145.667,162.167 146,161.5C 146.637,164.328 148.304,166.328 151,167.5C 157.834,164.953 165,162.953 172.5,161.5C 175.262,162.457 178.095,163.124 181,163.5C 186.716,162.491 192.383,161.158 198,159.5C 199,159.833 200,160.167 201,160.5C 206.624,158.65 212.291,156.984 218,155.5C 220.655,156.262 222.655,155.262 224,152.5C 225,153.833 226,155.167 227,156.5C 228.411,154.35 229.245,152.016 229.5,149.5C 230.833,149.5 232.167,149.5 233.5,149.5C 233.131,151.993 233.797,152.66 235.5,151.5 Z"/></g>
<g><path style="opacity:1" fill="#604224" d="M 148.5,142.5 C 147.207,144.296 145.707,145.963 144,147.5C 142.781,159.799 141.948,172.132 141.5,184.5C 141.167,184.5 140.833,184.5 140.5,184.5C 140.184,174.157 140.018,163.824 140,153.5C 140.927,148.292 143.76,144.625 148.5,142.5 Z"/></g>
<g><path style="opacity:1" fill="#eecd80" d="M 224.5,159.5 C 224.279,162.097 223.779,162.097 223,159.5C 220.887,161.271 221.053,162.771 223.5,164C 218.706,165.71 213.873,167.21 209,168.5C 208,168.167 207,167.833 206,167.5C 198.464,169.319 190.798,170.652 183,171.5C 177.374,173.327 171.707,174.994 166,176.5C 162.421,175.865 158.754,175.531 155,175.5C 154.5,176 154,176.5 153.5,177C 157.213,177.23 157.88,178.397 155.5,180.5C 151.916,182.969 147.916,183.969 143.5,183.5C 143.5,183.167 143.5,182.833 143.5,182.5C 144.695,182.134 145.361,181.301 145.5,180C 144.852,178.56 144.519,177.06 144.5,175.5C 146.592,175.439 148.092,174.439 149,172.5C 149.333,172.833 149.667,173.167 150,173.5C 150.465,172.069 151.299,170.903 152.5,170C 155.98,169.699 159.313,168.865 162.5,167.5C 163.689,167.756 164.856,168.089 166,168.5C 179.69,166.475 193.524,164.642 207.5,163C 213.041,160.084 218.708,158.918 224.5,159.5 Z"/></g>
<g><path style="opacity:1" fill="#f1d38e" d="M 222.5,122.5 C 223.833,122.5 225.167,122.5 226.5,122.5C 228.5,122.5 230.5,122.5 232.5,122.5C 231.637,124.895 231.637,127.229 232.5,129.5C 233.732,130.145 235.065,130.311 236.5,130C 237.099,131.622 237.766,133.122 238.5,134.5C 238.045,147.19 237.378,159.856 236.5,172.5C 235.069,171.918 233.736,171.085 232.5,170C 225.715,168.669 219.382,169.669 213.5,173C 214.981,173.98 216.315,175.147 217.5,176.5C 215.726,177.187 214.059,178.02 212.5,179C 210.32,179.419 208.154,179.252 206,178.5C 201.469,179.406 197.135,180.74 193,182.5C 192.107,181.919 191.107,181.585 190,181.5C 186.388,183.02 182.555,183.854 178.5,184C 178,184.5 177.5,185 177,185.5C 175.806,184.57 174.473,183.903 173,183.5C 166.926,186.521 160.426,188.021 153.5,188C 154.167,188.333 154.833,188.667 155.5,189C 153.576,190.267 151.91,190.267 150.5,189C 152.089,187.255 154.089,186.088 156.5,185.5C 155.731,183.199 154.731,183.033 153.5,185C 151.527,185.495 149.527,185.662 147.5,185.5C 147.662,187.527 147.495,189.527 147,191.5C 146.851,188.721 146.017,188.221 144.5,190C 144.833,190.333 145.167,190.667 145.5,191C 144.901,192.622 144.234,194.122 143.5,195.5C 143.5,192.5 143.5,189.5 143.5,186.5C 143.5,185.5 143.5,184.5 143.5,183.5C 147.916,183.969 151.916,182.969 155.5,180.5C 157.88,178.397 157.213,177.23 153.5,177C 154,176.5 154.5,176 155,175.5C 158.754,175.531 162.421,175.865 166,176.5C 171.707,174.994 177.374,173.327 183,171.5C 190.798,170.652 198.464,169.319 206,167.5C 207,167.833 208,168.167 209,168.5C 213.873,167.21 218.706,165.71 223.5,164C 221.053,162.771 220.887,161.271 223,159.5C 223.779,162.097 224.279,162.097 224.5,159.5C 226.39,159.703 227.89,159.037 229,157.5C 229.216,155.616 229.883,153.949 231,152.5C 233.704,157.971 235.204,157.637 235.5,151.5C 236.491,145.021 236.824,138.354 236.5,131.5C 231.772,131.625 228.439,129.458 226.5,125C 224.19,124.503 221.857,124.337 219.5,124.5C 220.5,123.833 221.5,123.167 222.5,122.5 Z"/></g>
<g><path style="opacity:1" fill="#f2d99e" d="M 236.5,172.5 C 236.5,176.5 236.5,180.5 236.5,184.5C 227.19,186.933 217.856,189.6 208.5,192.5C 200.14,192.588 191.807,193.755 183.5,196C 173.532,197.09 163.532,197.756 153.5,198C 152.5,198.833 151.5,199.667 150.5,200.5C 152.828,202.574 152.161,203.574 148.5,203.5C 148.762,202.022 148.429,200.689 147.5,199.5C 146.41,200.391 146.41,201.391 147.5,202.5C 146.273,203.59 145.44,204.924 145,206.5C 144.501,210.152 144.335,213.818 144.5,217.5C 143.768,225.133 143.268,232.8 143,240.5C 142.487,241.527 141.987,242.527 141.5,243.5C 141.167,243.5 140.833,243.5 140.5,243.5C 140.5,229.5 140.5,215.5 140.5,201.5C 141.117,201.611 141.617,201.944 142,202.5C 142.29,200.08 142.79,197.746 143.5,195.5C 144.234,194.122 144.901,192.622 145.5,191C 145.167,190.667 144.833,190.333 144.5,190C 146.017,188.221 146.851,188.721 147,191.5C 147.495,189.527 147.662,187.527 147.5,185.5C 149.527,185.662 151.527,185.495 153.5,185C 154.731,183.033 155.731,183.199 156.5,185.5C 154.089,186.088 152.089,187.255 150.5,189C 151.91,190.267 153.576,190.267 155.5,189C 154.833,188.667 154.167,188.333 153.5,188C 160.426,188.021 166.926,186.521 173,183.5C 174.473,183.903 175.806,184.57 177,185.5C 177.5,185 178,184.5 178.5,184C 182.555,183.854 186.388,183.02 190,181.5C 191.107,181.585 192.107,181.919 193,182.5C 197.135,180.74 201.469,179.406 206,178.5C 208.154,179.252 210.32,179.419 212.5,179C 214.059,178.02 215.726,177.187 217.5,176.5C 216.315,175.147 214.981,173.98 213.5,173C 219.382,169.669 225.715,168.669 232.5,170C 233.736,171.085 235.069,171.918 236.5,172.5 Z"/></g>
<g><path style="opacity:1" fill="#b39665" d="M 140.5,184.5 C 140.833,184.5 141.167,184.5 141.5,184.5C 141.337,186.857 141.503,189.19 142,191.5C 142.198,189.618 142.698,187.952 143.5,186.5C 143.5,189.5 143.5,192.5 143.5,195.5C 142.79,197.746 142.29,200.08 142,202.5C 141.617,201.944 141.117,201.611 140.5,201.5C 140.5,195.833 140.5,190.167 140.5,184.5 Z"/></g>
<g><path style="opacity:1" fill="#ecd091" d="M 236.5,184.5 C 236.52,186.143 235.853,187.476 234.5,188.5C 231.727,189.253 229.06,190.253 226.5,191.5C 222.196,192.103 218.03,193.103 214,194.5C 212.413,193.273 211.079,193.606 210,195.5C 208.026,195.353 206.026,195.019 204,194.5C 202.549,197.264 200.383,199.264 197.5,200.5C 196.833,200.167 196.167,199.833 195.5,199.5C 188.043,201.151 180.877,203.485 174,206.5C 173.439,205.978 172.772,205.645 172,205.5C 165.237,209.315 158.07,211.149 150.5,211C 149.672,211.915 148.672,212.581 147.5,213C 148.345,214.558 147.679,215.558 145.5,216C 146.712,217.107 146.379,217.607 144.5,217.5C 144.335,213.818 144.501,210.152 145,206.5C 145.44,204.924 146.273,203.59 147.5,202.5C 146.41,201.391 146.41,200.391 147.5,199.5C 148.429,200.689 148.762,202.022 148.5,203.5C 152.161,203.574 152.828,202.574 150.5,200.5C 151.5,199.667 152.5,198.833 153.5,198C 163.532,197.756 173.532,197.09 183.5,196C 191.807,193.755 200.14,192.588 208.5,192.5C 217.856,189.6 227.19,186.933 236.5,184.5 Z"/></g>
<g><path style="opacity:1" fill="#d5b06b" d="M 238.5,123.5 C 239.338,123.842 239.672,124.508 239.5,125.5C 239.828,137.012 239.495,148.346 238.5,159.5C 237.644,169.451 237.144,180.785 237,193.5C 232.118,197.9 226.451,199.233 220,197.5C 209.202,199.989 198.702,203.323 188.5,207.5C 182.641,206.866 176.975,207.866 171.5,210.5C 170.914,210.291 170.414,209.957 170,209.5C 167.867,211.138 165.367,211.971 162.5,212C 161.874,212.75 161.374,213.584 161,214.5C 159.612,213.446 158.112,213.28 156.5,214C 155.034,216.992 152.868,217.826 150,216.5C 149,217.833 148,219.167 147,220.5C 146.667,220.167 146.333,219.833 146,219.5C 144.798,221.677 144.298,224.011 144.5,226.5C 144.5,228.167 144.5,229.833 144.5,231.5C 144.5,237.5 144.5,243.5 144.5,249.5C 144.5,250.833 144.5,252.167 144.5,253.5C 143.833,255.833 143.167,258.167 142.5,260.5C 142.468,254.811 142.134,249.145 141.5,243.5C 141.987,242.527 142.487,241.527 143,240.5C 143.268,232.8 143.768,225.133 144.5,217.5C 146.379,217.607 146.712,217.107 145.5,216C 147.679,215.558 148.345,214.558 147.5,213C 148.672,212.581 149.672,211.915 150.5,211C 158.07,211.149 165.237,209.315 172,205.5C 172.772,205.645 173.439,205.978 174,206.5C 180.877,203.485 188.043,201.151 195.5,199.5C 196.167,199.833 196.833,200.167 197.5,200.5C 200.383,199.264 202.549,197.264 204,194.5C 206.026,195.019 208.026,195.353 210,195.5C 211.079,193.606 212.413,193.273 214,194.5C 218.03,193.103 222.196,192.103 226.5,191.5C 229.06,190.253 231.727,189.253 234.5,188.5C 235.853,187.476 236.52,186.143 236.5,184.5C 236.5,180.5 236.5,176.5 236.5,172.5C 237.378,159.856 238.045,147.19 238.5,134.5C 238.5,130.833 238.5,127.167 238.5,123.5 Z"/></g>
<g><path style="opacity:1" fill="#c99d51" d="M 238.5,159.5 C 238.5,172.167 238.5,184.833 238.5,197.5C 235.612,198.179 233.112,199.512 231,201.5C 230.439,200.978 229.772,200.645 229,200.5C 218.455,204.178 207.621,206.678 196.5,208C 196.833,208.333 197.167,208.667 197.5,209C 194.867,209.423 192.701,210.59 191,212.5C 189.16,211.167 188.66,211.334 189.5,213C 180.371,212.918 171.704,215.085 163.5,219.5C 161.568,218.48 159.568,218.313 157.5,219C 154.185,221.414 150.518,223.081 146.5,224C 145.934,224.995 145.267,225.828 144.5,226.5C 144.298,224.011 144.798,221.677 146,219.5C 146.333,219.833 146.667,220.167 147,220.5C 148,219.167 149,217.833 150,216.5C 152.868,217.826 155.034,216.992 156.5,214C 158.112,213.28 159.612,213.446 161,214.5C 161.374,213.584 161.874,212.75 162.5,212C 165.367,211.971 167.867,211.138 170,209.5C 170.414,209.957 170.914,210.291 171.5,210.5C 176.975,207.866 182.641,206.866 188.5,207.5C 198.702,203.323 209.202,199.989 220,197.5C 226.451,199.233 232.118,197.9 237,193.5C 237.144,180.785 237.644,169.451 238.5,159.5 Z"/></g>
<g><path style="opacity:1" fill="#b98539" d="M 238.5,197.5 C 238.5,209.833 238.5,222.167 238.5,234.5C 237.833,227.167 237.167,219.833 236.5,212.5C 236.5,212.167 236.5,211.833 236.5,211.5C 236.663,209.143 236.497,206.81 236,204.5C 231.634,206.557 227.134,207.223 222.5,206.5C 221.528,208.636 219.861,209.803 217.5,210C 201.893,214.288 185.893,218.288 169.5,222C 160.354,224.984 152.02,228.15 144.5,231.5C 144.5,229.833 144.5,228.167 144.5,226.5C 145.267,225.828 145.934,224.995 146.5,224C 150.518,223.081 154.185,221.414 157.5,219C 159.568,218.313 161.568,218.48 163.5,219.5C 171.704,215.085 180.371,212.918 189.5,213C 188.66,211.334 189.16,211.167 191,212.5C 192.701,210.59 194.867,209.423 197.5,209C 197.167,208.667 196.833,208.333 196.5,208C 207.621,206.678 218.455,204.178 229,200.5C 229.772,200.645 230.439,200.978 231,201.5C 233.112,199.512 235.612,198.179 238.5,197.5 Z"/></g>
<g><path style="opacity:1" fill="#593f21" d="M 239.5,125.5 C 240.665,173.665 240.832,221.998 240,270.5C 239.059,272.727 237.892,274.727 236.5,276.5C 236.5,275.167 236.5,273.833 236.5,272.5C 236.5,272.167 236.5,271.833 236.5,271.5C 238.48,259.545 239.146,247.212 238.5,234.5C 238.5,222.167 238.5,209.833 238.5,197.5C 238.5,184.833 238.5,172.167 238.5,159.5C 239.495,148.346 239.828,137.012 239.5,125.5 Z"/></g>
<g><path style="opacity:1" fill="#a2641d" d="M 236.5,211.5 C 236.5,211.833 236.5,212.167 236.5,212.5C 236.666,216.514 236.499,220.514 236,224.5C 234.605,225.815 233.605,225.481 233,223.5C 232.906,228.23 230.74,229.563 226.5,227.5C 224.736,230.177 223.57,229.844 223,226.5C 221.933,227.191 220.766,227.691 219.5,228C 214.167,228.333 208.833,228.667 203.5,229C 201.971,231.736 200.471,231.902 199,229.5C 190.291,232.128 181.458,235.294 172.5,239C 167.195,238.975 162.195,240.142 157.5,242.5C 154.851,241.538 152.351,241.205 150,241.5C 149.667,242.833 149.333,244.167 149,245.5C 148.904,242.549 148.071,239.882 146.5,237.5C 147.5,236.167 148.5,234.833 149.5,233.5C 150.72,232.289 151.887,232.289 153,233.5C 155.096,232.285 154.929,231.451 152.5,231C 159.489,228.67 166.489,226.337 173.5,224C 190.359,220.546 207.026,216.379 223.5,211.5C 224.167,211.667 224.833,211.833 225.5,212C 222.063,212.649 221.896,213.149 225,213.5C 227.568,213.049 229.902,212.049 232,210.5C 233.356,211.38 234.856,211.714 236.5,211.5 Z"/></g>
<g><path style="opacity:1" fill="#a96c21" d="M 236.5,211.5 C 234.856,211.714 233.356,211.38 232,210.5C 229.902,212.049 227.568,213.049 225,213.5C 221.896,213.149 222.063,212.649 225.5,212C 224.833,211.833 224.167,211.667 223.5,211.5C 207.026,216.379 190.359,220.546 173.5,224C 166.489,226.337 159.489,228.67 152.5,231C 154.929,231.451 155.096,232.285 153,233.5C 151.887,232.289 150.72,232.289 149.5,233.5C 148.5,234.833 147.5,236.167 146.5,237.5C 148.071,239.882 148.904,242.549 149,245.5C 149.333,244.167 149.667,242.833 150,241.5C 152.351,241.205 154.851,241.538 157.5,242.5C 162.195,240.142 167.195,238.975 172.5,239C 181.458,235.294 190.291,232.128 199,229.5C 200.471,231.902 201.971,231.736 203.5,229C 208.833,228.667 214.167,228.333 219.5,228C 220.766,227.691 221.933,227.191 223,226.5C 223.57,229.844 224.736,230.177 226.5,227.5C 230.74,229.563 232.906,228.23 233,223.5C 233.605,225.481 234.605,225.815 236,224.5C 236.499,220.514 236.666,216.514 236.5,212.5C 237.167,219.833 237.833,227.167 238.5,234.5C 239.146,247.212 238.48,259.545 236.5,271.5C 237.752,263.359 237.752,255.359 236.5,247.5C 237.512,241.904 236.679,236.571 234,231.5C 232.97,234.583 230.97,235.25 228,233.5C 221.851,234.623 215.684,235.623 209.5,236.5C 208.558,236.392 207.725,236.059 207,235.5C 206.311,236.357 205.478,237.023 204.5,237.5C 202.138,237.557 199.805,237.557 197.5,237.5C 184.069,242.049 170.402,245.716 156.5,248.5C 153.712,247.04 151.545,247.707 150,250.5C 148.081,249.926 146.247,249.593 144.5,249.5C 144.5,243.5 144.5,237.5 144.5,231.5C 152.02,228.15 160.354,224.984 169.5,222C 185.893,218.288 201.893,214.288 217.5,210C 219.861,209.803 221.528,208.636 222.5,206.5C 227.134,207.223 231.634,206.557 236,204.5C 236.497,206.81 236.663,209.143 236.5,211.5 Z"/></g>
<g><path style="opacity:1" fill="#b27421" d="M 236.5,247.5 C 235.732,246.737 235.232,245.737 235,244.5C 232.865,250.519 230.198,250.519 227,244.5C 225.582,247.633 223.416,248.633 220.5,247.5C 212.778,248.815 205.111,250.648 197.5,253C 194.443,253.256 191.443,253.756 188.5,254.5C 184.207,253.541 180.54,254.708 177.5,258C 170.831,259.334 164.164,260.667 157.5,262C 155.391,263.141 153.558,264.641 152,266.5C 149.403,265.727 146.903,264.727 144.5,263.5C 144.5,260.167 144.5,256.833 144.5,253.5C 144.5,252.167 144.5,250.833 144.5,249.5C 146.247,249.593 148.081,249.926 150,250.5C 151.545,247.707 153.712,247.04 156.5,248.5C 170.402,245.716 184.069,242.049 197.5,237.5C 199.805,237.557 202.138,237.557 204.5,237.5C 205.478,237.023 206.311,236.357 207,235.5C 207.725,236.059 208.558,236.392 209.5,236.5C 215.684,235.623 221.851,234.623 228,233.5C 230.97,235.25 232.97,234.583 234,231.5C 236.679,236.571 237.512,241.904 236.5,247.5 Z"/></g>
<g><path style="opacity:1" fill="#ba7d25" d="M 236.5,247.5 C 237.752,255.359 237.752,263.359 236.5,271.5C 236.5,271.833 236.5,272.167 236.5,272.5C 234.516,273.983 232.683,275.649 231,277.5C 229.238,277.056 229.405,276.556 231.5,276C 229.875,275.147 229.542,274.147 230.5,273C 229.833,272.833 229.167,272.667 228.5,272.5C 224.397,273.864 220.231,274.864 216,275.5C 215.481,274.484 214.647,273.818 213.5,273.5C 210.063,273.742 207.063,274.909 204.5,277C 205.167,277.333 205.833,277.667 206.5,278C 204.385,278.557 202.385,279.391 200.5,280.5C 199.833,280.167 199.167,279.833 198.5,279.5C 196.201,281.232 193.701,282.566 191,283.5C 189.991,282.342 188.658,281.675 187,281.5C 182.446,283.641 177.78,283.974 173,282.5C 169.442,282.875 166.109,283.875 163,285.5C 157.768,284.029 152.768,284.696 148,287.5C 147.333,284.833 146.667,284.833 146,287.5C 145.79,285.942 145.29,284.609 144.5,283.5C 144.5,276.833 144.5,270.167 144.5,263.5C 146.903,264.727 149.403,265.727 152,266.5C 153.558,264.641 155.391,263.141 157.5,262C 164.164,260.667 170.831,259.334 177.5,258C 180.54,254.708 184.207,253.541 188.5,254.5C 191.443,253.756 194.443,253.256 197.5,253C 205.111,250.648 212.778,248.815 220.5,247.5C 223.416,248.633 225.582,247.633 227,244.5C 230.198,250.519 232.865,250.519 235,244.5C 235.232,245.737 235.732,246.737 236.5,247.5 Z"/></g>
<g><path style="opacity:1" fill="#a17b46" d="M 140.5,243.5 C 140.833,243.5 141.167,243.5 141.5,243.5C 142.134,249.145 142.468,254.811 142.5,260.5C 142.223,273.537 142.557,286.537 143.5,299.5C 143.167,299.5 142.833,299.5 142.5,299.5C 142.217,298.711 141.717,298.044 141,297.5C 140.5,279.503 140.333,261.503 140.5,243.5 Z"/></g>
<g><path style="opacity:1" fill="#766950" d="M 321.5,269.5 C 316.833,269.5 312.167,269.5 307.5,269.5C 309.462,267.983 311.795,267.316 314.5,267.5C 317.205,267.316 319.538,267.983 321.5,269.5 Z"/></g>
<g><path style="opacity:1" fill="#271d11" d="M 322.5,269.5 C 324.38,269.229 325.713,269.896 326.5,271.5C 324.847,271.34 323.514,270.674 322.5,269.5 Z"/></g>
<g><path style="opacity:1" fill="#7c6f55" d="M 307.5,269.5 C 306.5,270.167 305.5,270.833 304.5,271.5C 304.167,271.5 303.833,271.5 303.5,271.5C 302.5,271.5 301.5,271.5 300.5,271.5C 302.438,269.837 304.772,269.171 307.5,269.5 Z"/></g>
<g><path style="opacity:1" fill="#e9ca8f" d="M 307.5,269.5 C 312.167,269.5 316.833,269.5 321.5,269.5C 321.833,269.5 322.167,269.5 322.5,269.5C 323.514,270.674 324.847,271.34 326.5,271.5C 327.167,272.833 328.167,273.833 329.5,274.5C 329.5,275.167 329.5,275.833 329.5,276.5C 326.613,273.948 323.28,272.282 319.5,271.5C 314.659,270.468 309.659,270.468 304.5,271.5C 305.5,270.833 306.5,270.167 307.5,269.5 Z"/></g>
<g><path style="opacity:1" fill="#392a1c" d="M 299.5,271.5 C 297.698,272.458 295.698,273.125 293.5,273.5C 294.99,271.72 296.99,271.054 299.5,271.5 Z"/></g>
<g><path style="opacity:1" fill="#edd5a4" d="M 299.5,271.5 C 299.833,271.5 300.167,271.5 300.5,271.5C 301.5,271.5 302.5,271.5 303.5,271.5C 303.389,272.117 303.056,272.617 302.5,273C 295.927,275.027 289.261,276.527 282.5,277.5C 283.5,276.833 284.5,276.167 285.5,275.5C 288.152,275.59 290.485,274.924 292.5,273.5C 292.833,273.5 293.167,273.5 293.5,273.5C 295.698,273.125 297.698,272.458 299.5,271.5 Z"/></g>
<g><path style="opacity:1" fill="#201505" d="M 326.5,271.5 C 328.5,271.5 329.5,272.5 329.5,274.5C 328.167,273.833 327.167,272.833 326.5,271.5 Z"/></g>
<g><path style="opacity:1" fill="#60523a" d="M 292.5,273.5 C 290.485,274.924 288.152,275.59 285.5,275.5C 287.438,273.837 289.772,273.171 292.5,273.5 Z"/></g>
<g><path style="opacity:1" fill="#5c4f3a" d="M 285.5,275.5 C 284.5,276.167 283.5,276.833 282.5,277.5C 279.545,278.159 276.545,278.492 273.5,278.5C 277.267,276.973 281.267,275.973 285.5,275.5 Z"/></g>
<g><path style="opacity:1" fill="#e3bd6f" d="M 319.5,271.5 C 315.78,271.564 312.114,272.064 308.5,273C 301.377,276.754 293.877,278.588 286,278.5C 275.926,281.322 265.76,283.655 255.5,285.5C 253.283,286.369 250.95,286.702 248.5,286.5C 249.5,285.833 250.5,285.167 251.5,284.5C 254.428,284.435 257.095,283.768 259.5,282.5C 261.898,282.741 263.898,282.074 265.5,280.5C 265.833,280.5 266.167,280.5 266.5,280.5C 269.067,280.279 271.401,279.612 273.5,278.5C 276.545,278.492 279.545,278.159 282.5,277.5C 289.261,276.527 295.927,275.027 302.5,273C 303.056,272.617 303.389,272.117 303.5,271.5C 303.833,271.5 304.167,271.5 304.5,271.5C 309.659,270.468 314.659,270.468 319.5,271.5 Z"/></g>
<g><path style="opacity:1" fill="#3f2d1b" d="M 329.5,274.5 C 330.906,274.973 331.573,275.973 331.5,277.5C 330.833,277.167 330.167,276.833 329.5,276.5C 329.5,275.833 329.5,275.167 329.5,274.5 Z"/></g>
<g><path style="opacity:1" fill="#150800" d="M 331.5,277.5 C 332.833,277.5 333.5,278.167 333.5,279.5C 332.5,279.167 331.833,278.5 331.5,277.5 Z"/></g>
<g><path style="opacity:1" fill="#1a0d03" d="M 273.5,278.5 C 271.401,279.612 269.067,280.279 266.5,280.5C 268.438,278.837 270.772,278.171 273.5,278.5 Z"/></g>
<g><path style="opacity:1" fill="#593a19" d="M 236.5,276.5 C 233.307,280.732 228.974,282.732 223.5,282.5C 222.833,282.5 222.167,282.5 221.5,282.5C 221.5,282.167 221.5,281.833 221.5,281.5C 226.375,279.715 231.375,278.048 236.5,276.5 Z"/></g>
<g><path style="opacity:1" fill="#574a2f" d="M 333.5,279.5 C 334.906,279.973 335.573,280.973 335.5,282.5C 334.094,282.027 333.427,281.027 333.5,279.5 Z"/></g>
<g><path style="opacity:1" fill="#b17525" d="M 236.5,272.5 C 236.5,273.833 236.5,275.167 236.5,276.5C 231.375,278.048 226.375,279.715 221.5,281.5C 213.699,281.619 206.366,283.286 199.5,286.5C 198.209,286.263 197.209,286.596 196.5,287.5C 189.77,289.014 183.103,290.848 176.5,293C 175.748,293.671 175.414,294.504 175.5,295.5C 173.181,294.833 170.847,294.666 168.5,295C 166.574,295.422 165.574,296.589 165.5,298.5C 164.833,298.5 164.167,298.5 163.5,298.5C 159.829,298.757 156.495,299.757 153.5,301.5C 150.615,301.806 147.948,301.473 145.5,300.5C 148.073,300.852 150.406,300.352 152.5,299C 149.93,298.277 147.597,297.11 145.5,295.5C 144.509,291.555 144.176,287.555 144.5,283.5C 145.29,284.609 145.79,285.942 146,287.5C 146.667,284.833 147.333,284.833 148,287.5C 152.768,284.696 157.768,284.029 163,285.5C 166.109,283.875 169.442,282.875 173,282.5C 177.78,283.974 182.446,283.641 187,281.5C 188.658,281.675 189.991,282.342 191,283.5C 193.701,282.566 196.201,281.232 198.5,279.5C 199.167,279.833 199.833,280.167 200.5,280.5C 202.385,279.391 204.385,278.557 206.5,278C 205.833,277.667 205.167,277.333 204.5,277C 207.063,274.909 210.063,273.742 213.5,273.5C 214.647,273.818 215.481,274.484 216,275.5C 220.231,274.864 224.397,273.864 228.5,272.5C 229.167,272.667 229.833,272.833 230.5,273C 229.542,274.147 229.875,275.147 231.5,276C 229.405,276.556 229.238,277.056 231,277.5C 232.683,275.649 234.516,273.983 236.5,272.5 Z"/></g>
<g><path style="opacity:1" fill="#736445" d="M 265.5,280.5 C 263.898,282.074 261.898,282.741 259.5,282.5C 261.102,280.926 263.102,280.259 265.5,280.5 Z"/></g>
<g><path style="opacity:1" fill="#825521" d="M 221.5,281.5 C 221.5,281.833 221.5,282.167 221.5,282.5C 216.167,283.833 210.834,285.166 205.5,286.5C 203.5,286.5 201.5,286.5 199.5,286.5C 206.366,283.286 213.699,281.619 221.5,281.5 Z"/></g>
<g><path style="opacity:1" fill="#55472f" d="M 259.5,282.5 C 257.095,283.768 254.428,284.435 251.5,284.5C 253.838,282.96 256.505,282.294 259.5,282.5 Z"/></g>
<g><path style="opacity:1" fill="#221303" d="M 221.5,282.5 C 222.167,282.5 222.833,282.5 223.5,282.5C 217.776,284.767 211.776,286.434 205.5,287.5C 205.5,287.167 205.5,286.833 205.5,286.5C 210.834,285.166 216.167,283.833 221.5,282.5 Z"/></g>
<g><path style="opacity:1" fill="#5a472a" d="M 251.5,284.5 C 250.5,285.167 249.5,285.833 248.5,286.5C 247.167,286.5 245.833,286.5 244.5,286.5C 246.515,285.076 248.848,284.41 251.5,284.5 Z"/></g>
<g><path style="opacity:1" fill="#4d3012" d="M 199.5,286.5 C 201.5,286.5 203.5,286.5 205.5,286.5C 205.5,286.833 205.5,287.167 205.5,287.5C 201.981,288.964 198.314,289.964 194.5,290.5C 195.551,289.778 196.218,288.778 196.5,287.5C 197.209,286.596 198.209,286.263 199.5,286.5 Z"/></g>
<g><path style="opacity:1" fill="#4a4028" d="M 337.5,284.5 C 339.914,285.911 341.581,287.911 342.5,290.5C 340.086,289.089 338.419,287.089 337.5,284.5 Z"/></g>
<g><path style="opacity:1" fill="#e2b253" d="M 319.5,271.5 C 323.28,272.282 326.613,273.948 329.5,276.5C 329.5,277.167 329.5,277.833 329.5,278.5C 328.292,277.766 326.959,277.433 325.5,277.5C 325.585,276.005 324.919,275.005 323.5,274.5C 321.296,276.833 318.796,277.166 316,275.5C 313.918,276.461 312.085,277.794 310.5,279.5C 309.707,279.069 308.873,278.735 308,278.5C 294.179,284.667 280.012,290 265.5,294.5C 263.803,294.101 262.137,293.601 260.5,293C 258.934,290.674 257.268,288.508 255.5,286.5C 255.5,286.167 255.5,285.833 255.5,285.5C 265.76,283.655 275.926,281.322 286,278.5C 293.877,278.588 301.377,276.754 308.5,273C 312.114,272.064 315.78,271.564 319.5,271.5 Z"/></g>
<g><path style="opacity:1" fill="#724c1e" d="M 196.5,287.5 C 196.218,288.778 195.551,289.778 194.5,290.5C 194.167,290.5 193.833,290.5 193.5,290.5C 190.848,290.41 188.515,291.076 186.5,292.5C 183.039,294.128 179.372,295.128 175.5,295.5C 175.414,294.504 175.748,293.671 176.5,293C 183.103,290.848 189.77,289.014 196.5,287.5 Z"/></g>
<g><path style="opacity:1" fill="#d5a143" d="M 325.5,277.5 C 324.992,279.233 324.159,279.566 323,278.5C 310.704,282.894 298.537,287.727 286.5,293C 285.101,293.595 283.768,293.428 282.5,292.5C 282.264,293.247 281.93,294.08 281.5,295C 274.68,298.871 267.347,300.538 259.5,300C 260.833,299.667 262.167,299.333 263.5,299C 261.323,297.798 258.989,297.298 256.5,297.5C 253.287,296.056 252.953,294.223 255.5,292C 254.862,290.293 254.862,288.46 255.5,286.5C 257.268,288.508 258.934,290.674 260.5,293C 262.137,293.601 263.803,294.101 265.5,294.5C 280.012,290 294.179,284.667 308,278.5C 308.873,278.735 309.707,279.069 310.5,279.5C 312.085,277.794 313.918,276.461 316,275.5C 318.796,277.166 321.296,276.833 323.5,274.5C 324.919,275.005 325.585,276.005 325.5,277.5 Z"/></g>
<g><path style="opacity:1" fill="#2a1403" d="M 193.5,290.5 C 191.485,291.924 189.152,292.59 186.5,292.5C 188.515,291.076 190.848,290.41 193.5,290.5 Z"/></g>
<g><path style="opacity:1" fill="#c29946" d="M 255.5,285.5 C 255.5,285.833 255.5,286.167 255.5,286.5C 254.862,288.46 254.862,290.293 255.5,292C 252.953,294.223 253.287,296.056 256.5,297.5C 256.265,298.097 255.765,298.43 255,298.5C 253.518,296.888 251.685,295.888 249.5,295.5C 249.452,298.292 250.785,300.125 253.5,301C 251.803,301.384 250.137,301.218 248.5,300.5C 247.406,298.388 246.406,296.221 245.5,294C 247.891,293.309 247.891,292.309 245.5,291C 246.756,290.583 247.423,289.75 247.5,288.5C 247.833,287.833 248.167,287.167 248.5,286.5C 250.95,286.702 253.283,286.369 255.5,285.5 Z"/></g>
<g><path style="opacity:1" fill="#302210" d="M 342.5,290.5 C 344.262,291.262 345.262,292.596 345.5,294.5C 343.738,293.738 342.738,292.404 342.5,290.5 Z"/></g>
<g><path style="opacity:1" fill="#69481f" d="M 175.5,295.5 C 172.381,296.87 169.048,297.87 165.5,298.5C 165.574,296.589 166.574,295.422 168.5,295C 170.847,294.666 173.181,294.833 175.5,295.5 Z"/></g>
<g><path style="opacity:1" fill="#c89136" d="M 325.5,277.5 C 326.959,277.433 328.292,277.766 329.5,278.5C 330.906,278.973 331.573,279.973 331.5,281.5C 330.292,280.766 328.959,280.433 327.5,280.5C 327.367,283.896 326.367,284.229 324.5,281.5C 323.946,284.762 322.28,285.762 319.5,284.5C 303.605,290.324 287.938,296.658 272.5,303.5C 271.914,303.291 271.414,302.957 271,302.5C 266.346,305.009 261.513,305.676 256.5,304.5C 252.966,304.639 250.299,303.306 248.5,300.5C 250.137,301.218 251.803,301.384 253.5,301C 250.785,300.125 249.452,298.292 249.5,295.5C 251.685,295.888 253.518,296.888 255,298.5C 255.765,298.43 256.265,298.097 256.5,297.5C 258.989,297.298 261.323,297.798 263.5,299C 262.167,299.333 260.833,299.667 259.5,300C 267.347,300.538 274.68,298.871 281.5,295C 281.93,294.08 282.264,293.247 282.5,292.5C 283.768,293.428 285.101,293.595 286.5,293C 298.537,287.727 310.704,282.894 323,278.5C 324.159,279.566 324.992,279.233 325.5,277.5 Z"/></g>
<g><path style="opacity:1" fill="#c18930" d="M 331.5,281.5 C 334.55,283.549 336.883,286.216 338.5,289.5C 338.291,290.922 337.791,292.255 337,293.5C 328.461,294.891 319.961,297.391 311.5,301C 312.815,302.395 312.481,303.395 310.5,304C 311.167,304.333 311.833,304.667 312.5,305C 309.161,303.991 305.995,304.491 303,306.5C 302.586,306.043 302.086,305.709 301.5,305.5C 291.302,309.136 281.802,313.136 273,317.5C 258.805,320.417 243.638,325.084 227.5,331.5C 214.133,335.34 199.966,340.007 185,345.5C 182.795,344.681 180.962,344.681 179.5,345.5C 178.609,344.89 177.609,344.557 176.5,344.5C 176.5,343.167 177.167,342.5 178.5,342.5C 180.06,342.519 181.56,342.852 183,343.5C 186.907,340.909 191.074,339.909 195.5,340.5C 197.705,338.654 200.039,336.987 202.5,335.5C 203.478,335.977 204.311,336.643 205,337.5C 210.196,334.814 215.696,332.647 221.5,331C 222.646,330.355 223.646,329.522 224.5,328.5C 226.705,329.374 228.538,328.708 230,326.5C 231,327.167 232,327.833 233,328.5C 235.521,326.304 238.521,323.971 242,321.5C 242.667,322.167 243.333,322.833 244,323.5C 249.131,320.018 254.631,317.184 260.5,315C 262.833,313.757 263.5,312.091 262.5,310C 264.776,309.703 266.943,310.203 269,311.5C 269.833,311.167 270.667,310.833 271.5,310.5C 269.325,307.261 266.491,306.594 263,308.5C 260.747,308.369 258.581,307.869 256.5,307C 255.402,306.23 255.402,305.397 256.5,304.5C 261.513,305.676 266.346,305.009 271,302.5C 271.414,302.957 271.914,303.291 272.5,303.5C 287.938,296.658 303.605,290.324 319.5,284.5C 322.28,285.762 323.946,284.762 324.5,281.5C 326.367,284.229 327.367,283.896 327.5,280.5C 328.959,280.433 330.292,280.766 331.5,281.5 Z"/></g>
<g><path style="opacity:1" fill="#403928" d="M 345.5,294.5 C 347.262,295.262 348.262,296.596 348.5,298.5C 346.738,297.738 345.738,296.404 345.5,294.5 Z"/></g>
<g><path style="opacity:1" fill="#c89241" d="M 144.5,253.5 C 144.5,256.833 144.5,260.167 144.5,263.5C 144.5,270.167 144.5,276.833 144.5,283.5C 144.176,287.555 144.509,291.555 145.5,295.5C 147.597,297.11 149.93,298.277 152.5,299C 150.406,300.352 148.073,300.852 145.5,300.5C 144.833,300.167 144.167,299.833 143.5,299.5C 142.557,286.537 142.223,273.537 142.5,260.5C 143.167,258.167 143.833,255.833 144.5,253.5 Z"/></g>
<g><path style="opacity:1" fill="#170e01" d="M 348.5,298.5 C 349.833,298.5 350.5,299.167 350.5,300.5C 349.5,300.167 348.833,299.5 348.5,298.5 Z"/></g>
<g><path style="opacity:1" fill="#412414" d="M 163.5,298.5 C 160.505,300.243 157.171,301.243 153.5,301.5C 156.495,299.757 159.829,298.757 163.5,298.5 Z"/></g>
<g><path style="opacity:1" fill="#33220e" d="M 142.5,299.5 C 142.833,299.5 143.167,299.5 143.5,299.5C 144.167,299.833 144.833,300.167 145.5,300.5C 147.948,301.473 150.615,301.806 153.5,301.5C 150.696,302.638 147.696,302.805 144.5,302C 143.619,301.292 142.953,300.458 142.5,299.5 Z"/></g>
<g><path style="opacity:1" fill="#5a441c" d="M 237.5,288.5 C 236.1,289.1 235.1,290.1 234.5,291.5C 231.57,292.299 228.57,292.632 225.5,292.5C 219.851,294.657 214.851,297.157 210.5,300C 211.205,301.557 210.539,302.723 208.5,303.5C 205.351,303.537 202.185,303.204 199,302.5C 198.626,303.416 198.126,304.25 197.5,305C 188.431,307.216 179.431,308.883 170.5,310C 173.849,310.089 174.349,311.256 172,313.5C 171.5,313 171,312.5 170.5,312C 166.848,311.501 163.182,311.335 159.5,311.5C 167.441,308.575 175.774,306.242 184.5,304.5C 185.167,304.833 185.833,305.167 186.5,305.5C 195.204,301.766 204.204,298.932 213.5,297C 214.955,295.374 216.622,294.208 218.5,293.5C 224.585,291.211 230.919,289.545 237.5,288.5 Z"/></g>
<g><path style="opacity:1" fill="#514433" d="M 352.5,302.5 C 353.906,302.973 354.573,303.973 354.5,305.5C 353.094,305.027 352.427,304.027 352.5,302.5 Z"/></g>
<g><path style="opacity:1" fill="#413118" d="M 218.5,293.5 C 216.622,294.208 214.955,295.374 213.5,297C 204.204,298.932 195.204,301.766 186.5,305.5C 185.833,305.167 185.167,304.833 184.5,304.5C 175.774,306.242 167.441,308.575 159.5,311.5C 156.645,314.592 155.812,318.259 157,322.5C 157.671,323.252 158.504,323.586 159.5,323.5C 159.167,326.5 160.5,327.833 163.5,327.5C 163.517,329.565 163.85,331.565 164.5,333.5C 161.152,330.149 158.152,326.482 155.5,322.5C 154.167,318.833 154.167,315.167 155.5,311.5C 156.429,310.685 157.429,309.852 158.5,309C 178.52,303.828 198.52,298.662 218.5,293.5 Z"/></g>
<g><path style="opacity:1" fill="#674839" d="M 356.5,307.5 C 357.906,307.973 358.573,308.973 358.5,310.5C 357.094,310.027 356.427,309.027 356.5,307.5 Z"/></g>
<g><path style="opacity:1" fill="#d3a046" d="M 338.5,289.5 C 339.974,290.436 340.974,291.77 341.5,293.5C 341.5,295.167 341.5,296.833 341.5,298.5C 340.07,298.579 338.736,298.246 337.5,297.5C 327.385,301.483 317.052,304.983 306.5,308C 297.51,311.374 288.844,315.208 280.5,319.5C 273.766,320.85 267.1,322.517 260.5,324.5C 259.833,324.167 259.167,323.833 258.5,323.5C 254.112,324.847 249.779,326.347 245.5,328C 246.5,328.333 247.5,328.667 248.5,329C 246.167,329.333 243.833,329.667 241.5,330C 242.696,330.654 242.696,331.154 241.5,331.5C 232.872,330.319 225.039,332.319 218,337.5C 206.416,340.237 195.25,343.904 184.5,348.5C 182.855,347.304 181.189,346.304 179.5,345.5C 180.962,344.681 182.795,344.681 185,345.5C 199.966,340.007 214.133,335.34 227.5,331.5C 243.638,325.084 258.805,320.417 273,317.5C 281.802,313.136 291.302,309.136 301.5,305.5C 302.086,305.709 302.586,306.043 303,306.5C 305.995,304.491 309.161,303.991 312.5,305C 311.833,304.667 311.167,304.333 310.5,304C 312.481,303.395 312.815,302.395 311.5,301C 319.961,297.391 328.461,294.891 337,293.5C 337.791,292.255 338.291,290.922 338.5,289.5 Z"/></g>
<g><path style="opacity:1" fill="#ebc065" d="M 342.5,294.5 C 347.21,299.877 351.543,305.543 355.5,311.5C 353.862,310.841 352.195,310.174 350.5,309.5C 344.934,312.911 339.268,316.078 333.5,319C 313.086,324.297 293.253,331.131 274,339.5C 263.358,341.603 253.191,345.103 243.5,350C 239.416,350.231 235.416,350.898 231.5,352C 234.062,351.762 236.396,352.762 238.5,355C 236.833,355.333 235.167,355.667 233.5,356C 229.827,359.855 225.494,361.355 220.5,360.5C 218.714,360.696 217.381,361.529 216.5,363C 213.833,363.333 211.167,363.667 208.5,364C 207.176,366.709 205.51,367.042 203.5,365C 204.167,364 204.833,363 205.5,362C 200.819,360.422 197.819,361.922 196.5,366.5C 192.858,362.608 189.191,358.608 185.5,354.5C 186.496,354.414 187.329,354.748 188,355.5C 200.924,349.751 214.757,345.251 229.5,342C 233.029,339.736 236.696,337.736 240.5,336C 265.733,329.386 290.4,321.052 314.5,311C 320.594,310.935 326.094,309.102 331,305.5C 333.464,304.839 335.964,304.339 338.5,304C 338.167,303.667 337.833,303.333 337.5,303C 339.842,302.164 341.842,300.83 343.5,299C 342.62,297.644 342.286,296.144 342.5,294.5 Z"/></g>
<g><path style="opacity:1" fill="#4f462d" d="M 360.5,312.5 C 362.262,313.262 363.262,314.596 363.5,316.5C 361.738,315.738 360.738,314.404 360.5,312.5 Z"/></g>
<g><path style="opacity:1" fill="#70531e" d="M 225.5,292.5 C 224.086,294.138 224.42,295.472 226.5,296.5C 225.902,297.795 225.402,299.128 225,300.5C 222.51,303.932 219.676,307.098 216.5,310C 214.236,310.236 212.069,310.736 210,311.5C 208.984,310.366 208.317,310.699 208,312.5C 207.275,311.941 206.442,311.608 205.5,311.5C 201.911,312.648 198.244,313.315 194.5,313.5C 194.649,314.552 194.483,315.552 194,316.5C 193.581,315.328 192.915,314.328 192,313.5C 185.944,315.043 179.944,316.71 174,318.5C 169.268,318.746 164.601,318.412 160,317.5C 156.897,319.112 156.73,321.112 159.5,323.5C 158.504,323.586 157.671,323.252 157,322.5C 155.812,318.259 156.645,314.592 159.5,311.5C 163.182,311.335 166.848,311.501 170.5,312C 171,312.5 171.5,313 172,313.5C 174.349,311.256 173.849,310.089 170.5,310C 179.431,308.883 188.431,307.216 197.5,305C 198.126,304.25 198.626,303.416 199,302.5C 202.185,303.204 205.351,303.537 208.5,303.5C 210.539,302.723 211.205,301.557 210.5,300C 214.851,297.157 219.851,294.657 225.5,292.5 Z"/></g>
<g><path style="opacity:1" fill="#866224" d="M 234.5,291.5 C 236.2,292.016 237.533,293.016 238.5,294.5C 234.213,297.413 231.713,301.413 231,306.5C 230.692,305.692 230.192,305.025 229.5,304.5C 228.489,308.335 226.822,311.835 224.5,315C 224.833,315.333 225.167,315.667 225.5,316C 218.554,317.503 211.721,319.67 205,322.5C 203.278,322.389 203.112,321.889 204.5,321C 191.774,320.67 179.107,321.336 166.5,323C 167.308,323.308 167.975,323.808 168.5,324.5C 167.051,325.172 165.718,325.839 164.5,326.5C 165.043,329.038 166.043,331.372 167.5,333.5C 166.5,333.5 165.5,333.5 164.5,333.5C 163.85,331.565 163.517,329.565 163.5,327.5C 160.5,327.833 159.167,326.5 159.5,323.5C 156.73,321.112 156.897,319.112 160,317.5C 164.601,318.412 169.268,318.746 174,318.5C 179.944,316.71 185.944,315.043 192,313.5C 192.915,314.328 193.581,315.328 194,316.5C 194.483,315.552 194.649,314.552 194.5,313.5C 198.244,313.315 201.911,312.648 205.5,311.5C 206.442,311.608 207.275,311.941 208,312.5C 208.317,310.699 208.984,310.366 210,311.5C 212.069,310.736 214.236,310.236 216.5,310C 219.676,307.098 222.51,303.932 225,300.5C 225.402,299.128 225.902,297.795 226.5,296.5C 224.42,295.472 224.086,294.138 225.5,292.5C 228.57,292.632 231.57,292.299 234.5,291.5 Z"/></g>
<g><path style="opacity:1" fill="#e0c588" d="M 329.5,276.5 C 330.167,276.833 330.833,277.167 331.5,277.5C 331.833,278.5 332.5,279.167 333.5,279.5C 333.427,281.027 334.094,282.027 335.5,282.5C 336.833,282.5 337.5,283.167 337.5,284.5C 338.419,287.089 340.086,289.089 342.5,290.5C 342.738,292.404 343.738,293.738 345.5,294.5C 345.738,296.404 346.738,297.738 348.5,298.5C 348.833,299.5 349.5,300.167 350.5,300.5C 351.5,300.833 352.167,301.5 352.5,302.5C 352.427,304.027 353.094,305.027 354.5,305.5C 355.5,305.833 356.167,306.5 356.5,307.5C 356.427,309.027 357.094,310.027 358.5,310.5C 359.5,310.833 360.167,311.5 360.5,312.5C 360.738,314.404 361.738,315.738 363.5,316.5C 364.419,319.089 366.086,321.089 368.5,322.5C 368.738,324.404 369.738,325.738 371.5,326.5C 372.833,328.167 372.833,329.833 371.5,331.5C 370.5,331.833 369.833,332.5 369.5,333.5C 366.794,333.425 364.127,333.092 361.5,332.5C 363.309,328.695 363.809,324.695 363,320.5C 360.598,317.278 358.098,314.278 355.5,311.5C 351.543,305.543 347.21,299.877 342.5,294.5C 342.5,293.833 342.167,293.5 341.5,293.5C 340.974,291.77 339.974,290.436 338.5,289.5C 336.883,286.216 334.55,283.549 331.5,281.5C 331.573,279.973 330.906,278.973 329.5,278.5C 329.5,277.833 329.5,277.167 329.5,276.5 Z"/></g>
<g><path style="opacity:1" fill="#251b10" d="M 155.5,311.5 C 154.167,315.167 154.167,318.833 155.5,322.5C 151.5,318.833 151.5,315.167 155.5,311.5 Z"/></g>
<g><path style="opacity:1" fill="#291a0b" d="M 363.5,316.5 C 365.914,317.911 367.581,319.911 368.5,322.5C 366.086,321.089 364.419,319.089 363.5,316.5 Z"/></g>
<g><path style="opacity:1" fill="#956c27" d="M 244.5,286.5 C 245.833,286.5 247.167,286.5 248.5,286.5C 248.167,287.167 247.833,287.833 247.5,288.5C 244.758,290.233 242.425,292.4 240.5,295C 241.059,295.725 241.392,296.558 241.5,297.5C 239.881,300.642 239.215,303.975 239.5,307.5C 238.448,307.351 237.448,307.517 236.5,308C 237.337,309.011 237.67,310.178 237.5,311.5C 236.312,310.952 235.145,310.619 234,310.5C 232.158,313.339 230.325,316.173 228.5,319C 223.087,320.751 217.754,322.751 212.5,325C 208.798,325.681 205.131,325.515 201.5,324.5C 192.682,326.654 183.682,326.654 174.5,324.5C 173.086,325.465 172.253,326.465 172,327.5C 169.566,326.678 167.066,326.344 164.5,326.5C 165.718,325.839 167.051,325.172 168.5,324.5C 167.975,323.808 167.308,323.308 166.5,323C 179.107,321.336 191.774,320.67 204.5,321C 203.112,321.889 203.278,322.389 205,322.5C 211.721,319.67 218.554,317.503 225.5,316C 225.167,315.667 224.833,315.333 224.5,315C 226.822,311.835 228.489,308.335 229.5,304.5C 230.192,305.025 230.692,305.692 231,306.5C 231.713,301.413 234.213,297.413 238.5,294.5C 237.533,293.016 236.2,292.016 234.5,291.5C 235.1,290.1 236.1,289.1 237.5,288.5C 239.438,286.837 241.772,286.171 244.5,286.5 Z"/></g>
<g><path style="opacity:1" fill="#b37f2e" d="M 247.5,288.5 C 247.423,289.75 246.756,290.583 245.5,291C 247.891,292.309 247.891,293.309 245.5,294C 246.406,296.221 247.406,298.388 248.5,300.5C 250.299,303.306 252.966,304.639 256.5,304.5C 255.402,305.397 255.402,306.23 256.5,307C 258.581,307.869 260.747,308.369 263,308.5C 266.491,306.594 269.325,307.261 271.5,310.5C 270.667,310.833 269.833,311.167 269,311.5C 266.943,310.203 264.776,309.703 262.5,310C 263.5,312.091 262.833,313.757 260.5,315C 254.631,317.184 249.131,320.018 244,323.5C 243.333,322.833 242.667,322.167 242,321.5C 238.521,323.971 235.521,326.304 233,328.5C 232,327.833 231,327.167 230,326.5C 228.538,328.708 226.705,329.374 224.5,328.5C 223.646,329.522 222.646,330.355 221.5,331C 215.696,332.647 210.196,334.814 205,337.5C 204.311,336.643 203.478,335.977 202.5,335.5C 200.039,336.987 197.705,338.654 195.5,340.5C 191.074,339.909 186.907,340.909 183,343.5C 181.56,342.852 180.06,342.519 178.5,342.5C 179.348,340.907 180.681,339.74 182.5,339C 185.482,338.502 188.482,338.335 191.5,338.5C 191.5,337.5 191.5,336.5 191.5,335.5C 210.31,333.679 227.31,327.346 242.5,316.5C 241.54,315.188 241.706,313.854 243,312.5C 244.333,313.167 245.667,313.833 247,314.5C 246.309,310.502 243.809,308.668 239.5,309C 241.81,311.864 241.144,312.698 237.5,311.5C 237.67,310.178 237.337,309.011 236.5,308C 237.448,307.517 238.448,307.351 239.5,307.5C 239.215,303.975 239.881,300.642 241.5,297.5C 241.392,296.558 241.059,295.725 240.5,295C 242.425,292.4 244.758,290.233 247.5,288.5 Z"/></g>
<g><path style="opacity:1" fill="#a37025" d="M 178.5,342.5 C 177.167,342.5 176.5,343.167 176.5,344.5C 173.632,343.122 171.965,340.788 171.5,337.5C 169.812,336.479 168.479,335.145 167.5,333.5C 166.043,331.372 165.043,329.038 164.5,326.5C 167.066,326.344 169.566,326.678 172,327.5C 172.253,326.465 173.086,325.465 174.5,324.5C 183.682,326.654 192.682,326.654 201.5,324.5C 205.131,325.515 208.798,325.681 212.5,325C 217.754,322.751 223.087,320.751 228.5,319C 230.325,316.173 232.158,313.339 234,310.5C 235.145,310.619 236.312,310.952 237.5,311.5C 241.144,312.698 241.81,311.864 239.5,309C 243.809,308.668 246.309,310.502 247,314.5C 245.667,313.833 244.333,313.167 243,312.5C 241.706,313.854 241.54,315.188 242.5,316.5C 227.31,327.346 210.31,333.679 191.5,335.5C 191.5,336.5 191.5,337.5 191.5,338.5C 188.482,338.335 185.482,338.502 182.5,339C 180.681,339.74 179.348,340.907 178.5,342.5 Z"/></g>
<g><path style="opacity:1" fill="#503f2b" d="M 368.5,322.5 C 370.262,323.262 371.262,324.596 371.5,326.5C 369.738,325.738 368.738,324.404 368.5,322.5 Z"/></g>
<g><path style="opacity:1" fill="#e4b75c" d="M 341.5,293.5 C 342.167,293.5 342.5,293.833 342.5,294.5C 342.286,296.144 342.62,297.644 343.5,299C 341.842,300.83 339.842,302.164 337.5,303C 337.833,303.333 338.167,303.667 338.5,304C 335.964,304.339 333.464,304.839 331,305.5C 326.094,309.102 320.594,310.935 314.5,311C 290.4,321.052 265.733,329.386 240.5,336C 236.696,337.736 233.029,339.736 229.5,342C 214.757,345.251 200.924,349.751 188,355.5C 187.329,354.748 186.496,354.414 185.5,354.5C 185.167,353.833 184.833,353.167 184.5,352.5C 189.858,351.365 194.858,349.199 199.5,346C 209.45,344.264 219.45,341.43 229.5,337.5C 230.086,337.709 230.586,338.043 231,338.5C 233.797,336.65 235.964,334.817 237.5,333C 242.833,332 248.167,331 253.5,330C 252.366,328.984 252.699,328.317 254.5,328C 262.829,325.668 271.162,323.335 279.5,321C 280.056,320.617 280.389,320.117 280.5,319.5C 288.844,315.208 297.51,311.374 306.5,308C 317.052,304.983 327.385,301.483 337.5,297.5C 338.736,298.246 340.07,298.579 341.5,298.5C 341.5,296.833 341.5,295.167 341.5,293.5 Z"/></g>
<g><path style="opacity:1" fill="#3d2116" d="M 371.5,331.5 C 371.5,332.833 370.833,333.5 369.5,333.5C 369.833,332.5 370.5,331.833 371.5,331.5 Z"/></g>
<g><path style="opacity:1" fill="#d3a14a" d="M 361.5,332.5 C 364.127,333.092 366.794,333.425 369.5,333.5C 369.5,334.167 369.167,334.5 368.5,334.5C 366.5,334.5 364.5,334.5 362.5,334.5C 361.054,333.387 359.387,333.22 357.5,334C 352.62,335.212 347.953,336.712 343.5,338.5C 335.721,339.511 328.721,342.178 322.5,346.5C 321.5,346.5 320.5,346.5 319.5,346.5C 315.837,345.888 312.17,345.721 308.5,346C 301.357,348.106 294.357,350.273 287.5,352.5C 281.721,354.723 275.721,356.056 269.5,356.5C 272.627,353.945 276.294,352.945 280.5,353.5C 280.343,352.127 280.51,350.793 281,349.5C 283.08,347.877 285.246,346.377 287.5,345C 292.868,344.326 297.701,342.492 302,339.5C 302.893,340.081 303.893,340.415 305,340.5C 309.179,337.831 313.679,335.831 318.5,334.5C 319.086,334.709 319.586,335.043 320,335.5C 323.275,334.114 326.109,332.114 328.5,329.5C 333.207,330.171 337.541,329.004 341.5,326C 344.859,325.229 348.192,324.395 351.5,323.5C 354.339,325.602 357.339,327.435 360.5,329C 357.412,329.847 354.579,329.347 352,327.5C 352.43,329.127 352.596,330.627 352.5,332C 355.549,331.588 358.549,331.755 361.5,332.5 Z"/></g>
<g><path style="opacity:1" fill="#4b381e" d="M 362.5,334.5 C 364.5,334.5 366.5,334.5 368.5,334.5C 364.733,336.027 360.733,337.027 356.5,337.5C 358.456,336.508 360.456,335.508 362.5,334.5 Z"/></g>
<g><path style="opacity:1" fill="#98692c" d="M 362.5,334.5 C 360.456,335.508 358.456,336.508 356.5,337.5C 352.215,338.295 347.881,338.628 343.5,338.5C 347.953,336.712 352.62,335.212 357.5,334C 359.387,333.22 361.054,333.387 362.5,334.5 Z"/></g>
<g><path style="opacity:1" fill="#daab52" d="M 280.5,319.5 C 280.389,320.117 280.056,320.617 279.5,321C 271.162,323.335 262.829,325.668 254.5,328C 252.699,328.317 252.366,328.984 253.5,330C 248.167,331 242.833,332 237.5,333C 235.964,334.817 233.797,336.65 231,338.5C 230.586,338.043 230.086,337.709 229.5,337.5C 219.45,341.43 209.45,344.264 199.5,346C 194.858,349.199 189.858,351.365 184.5,352.5C 183.167,351.167 181.833,349.833 180.5,348.5C 179.609,347.89 178.609,347.557 177.5,347.5C 176.596,346.791 176.263,345.791 176.5,344.5C 177.609,344.557 178.609,344.89 179.5,345.5C 181.189,346.304 182.855,347.304 184.5,348.5C 195.25,343.904 206.416,340.237 218,337.5C 225.039,332.319 232.872,330.319 241.5,331.5C 242.696,331.154 242.696,330.654 241.5,330C 243.833,329.667 246.167,329.333 248.5,329C 247.5,328.667 246.5,328.333 245.5,328C 249.779,326.347 254.112,324.847 258.5,323.5C 259.167,323.833 259.833,324.167 260.5,324.5C 267.1,322.517 273.766,320.85 280.5,319.5 Z"/></g>
<g><path style="opacity:1" fill="#4f361a" d="M 356.5,337.5 C 349.833,340.254 342.833,342.254 335.5,343.5C 338.167,341.833 340.833,340.167 343.5,338.5C 347.881,338.628 352.215,338.295 356.5,337.5 Z"/></g>
<g><path style="opacity:1" fill="#51371b" d="M 164.5,333.5 C 165.5,333.5 166.5,333.5 167.5,333.5C 168.479,335.145 169.812,336.479 171.5,337.5C 171.965,340.788 173.632,343.122 176.5,344.5C 176.263,345.791 176.596,346.791 177.5,347.5C 177.5,348.5 177.5,349.5 177.5,350.5C 172.814,345.142 168.481,339.475 164.5,333.5 Z"/></g>
<g><path style="opacity:1" fill="#936930" d="M 343.5,338.5 C 340.833,340.167 338.167,341.833 335.5,343.5C 332.505,343.294 329.838,343.96 327.5,345.5C 326.432,346.434 325.099,346.768 323.5,346.5C 323.167,346.5 322.833,346.5 322.5,346.5C 328.721,342.178 335.721,339.511 343.5,338.5 Z"/></g>
<g><path style="opacity:1" fill="#160701" d="M 335.5,343.5 C 333.162,345.04 330.495,345.706 327.5,345.5C 329.838,343.96 332.505,343.294 335.5,343.5 Z"/></g>
<g><path style="opacity:1" fill="#291d11" d="M 319.5,346.5 C 320.5,346.5 321.5,346.5 322.5,346.5C 322.833,346.5 323.167,346.5 323.5,346.5C 321.162,348.04 318.495,348.706 315.5,348.5C 316.833,347.833 318.167,347.167 319.5,346.5 Z"/></g>
<g><path style="opacity:1" fill="#261d0f" d="M 312.5,348.5 C 313.5,348.5 314.5,348.5 315.5,348.5C 313.562,350.163 311.228,350.829 308.5,350.5C 309.833,349.833 311.167,349.167 312.5,348.5 Z"/></g>
<g><path style="opacity:1" fill="#b39c6f" d="M 177.5,347.5 C 178.609,347.557 179.609,347.89 180.5,348.5C 181.562,350.234 181.562,351.901 180.5,353.5C 179.167,352.833 178.167,351.833 177.5,350.5C 177.5,349.5 177.5,348.5 177.5,347.5 Z"/></g>
<g><path style="opacity:1" fill="#e2bd73" d="M 319.5,346.5 C 318.167,347.167 316.833,347.833 315.5,348.5C 314.5,348.5 313.5,348.5 312.5,348.5C 304.012,349.041 295.679,350.374 287.5,352.5C 294.357,350.273 301.357,348.106 308.5,346C 312.17,345.721 315.837,345.888 319.5,346.5 Z"/></g>
<g><path style="opacity:1" fill="#2a1f13" d="M 307.5,350.5 C 306.01,352.28 304.01,352.946 301.5,352.5C 303.302,351.542 305.302,350.875 307.5,350.5 Z"/></g>
<g><path style="opacity:1" fill="#282217" d="M 301.5,352.5 C 299.562,354.163 297.228,354.829 294.5,354.5C 296.599,353.388 298.933,352.721 301.5,352.5 Z"/></g>
<g><path style="opacity:1" fill="#a1926c" d="M 180.5,353.5 C 181.822,353.33 182.989,353.663 184,354.5C 184.785,356.286 185.951,357.786 187.5,359C 186.829,359.986 186.829,361.153 187.5,362.5C 184.453,360.082 182.12,357.082 180.5,353.5 Z"/></g>
<g><path style="opacity:1" fill="#271e17" d="M 294.5,354.5 C 292.562,356.163 290.228,356.829 287.5,356.5C 289.599,355.388 291.933,354.721 294.5,354.5 Z"/></g>
<g><path style="opacity:1" fill="#322c23" d="M 286.5,356.5 C 284.898,358.074 282.898,358.741 280.5,358.5C 282.214,357.262 284.214,356.595 286.5,356.5 Z"/></g>
<g><path style="opacity:1" fill="#e7ce9a" d="M 312.5,348.5 C 311.167,349.167 309.833,349.833 308.5,350.5C 308.167,350.5 307.833,350.5 307.5,350.5C 305.302,350.875 303.302,351.542 301.5,352.5C 298.933,352.721 296.599,353.388 294.5,354.5C 291.933,354.721 289.599,355.388 287.5,356.5C 287.167,356.5 286.833,356.5 286.5,356.5C 284.214,356.595 282.214,357.262 280.5,358.5C 275.672,360.335 270.672,361.668 265.5,362.5C 260.11,363.42 254.777,363.753 249.5,363.5C 256.178,361.165 262.845,358.832 269.5,356.5C 275.721,356.056 281.721,354.723 287.5,352.5C 295.679,350.374 304.012,349.041 312.5,348.5 Z"/></g>
<g><path style="opacity:1" fill="#deaf55" d="M 355.5,311.5 C 358.098,314.278 360.598,317.278 363,320.5C 363.809,324.695 363.309,328.695 361.5,332.5C 358.549,331.755 355.549,331.588 352.5,332C 352.596,330.627 352.43,329.127 352,327.5C 354.579,329.347 357.412,329.847 360.5,329C 357.339,327.435 354.339,325.602 351.5,323.5C 348.192,324.395 344.859,325.229 341.5,326C 337.541,329.004 333.207,330.171 328.5,329.5C 326.109,332.114 323.275,334.114 320,335.5C 319.586,335.043 319.086,334.709 318.5,334.5C 313.679,335.831 309.179,337.831 305,340.5C 303.893,340.415 302.893,340.081 302,339.5C 297.701,342.492 292.868,344.326 287.5,345C 285.246,346.377 283.08,347.877 281,349.5C 280.51,350.793 280.343,352.127 280.5,353.5C 276.294,352.945 272.627,353.945 269.5,356.5C 262.845,358.832 256.178,361.165 249.5,363.5C 248.127,363.343 246.793,363.51 245.5,364C 242.907,364.886 240.907,366.386 239.5,368.5C 236.482,368.335 233.482,368.502 230.5,369C 222.942,371.306 215.275,373.14 207.5,374.5C 204.418,374.121 201.418,373.454 198.5,372.5C 196.919,370.858 196.253,368.858 196.5,366.5C 197.819,361.922 200.819,360.422 205.5,362C 204.833,363 204.167,364 203.5,365C 205.51,367.042 207.176,366.709 208.5,364C 211.167,363.667 213.833,363.333 216.5,363C 217.381,361.529 218.714,360.696 220.5,360.5C 225.494,361.355 229.827,359.855 233.5,356C 235.167,355.667 236.833,355.333 238.5,355C 236.396,352.762 234.062,351.762 231.5,352C 235.416,350.898 239.416,350.231 243.5,350C 253.191,345.103 263.358,341.603 274,339.5C 293.253,331.131 313.086,324.297 333.5,319C 339.268,316.078 344.934,312.911 350.5,309.5C 352.195,310.174 353.862,310.841 355.5,311.5 Z"/></g>
<g><path style="opacity:1" fill="#e6c687" d="M 180.5,348.5 C 181.833,349.833 183.167,351.167 184.5,352.5C 184.833,353.167 185.167,353.833 185.5,354.5C 189.191,358.608 192.858,362.608 196.5,366.5C 196.253,368.858 196.919,370.858 198.5,372.5C 197.833,372.5 197.167,372.5 196.5,372.5C 195.833,371.167 194.833,370.167 193.5,369.5C 192.833,369.5 192.5,369.167 192.5,368.5C 192.262,366.596 191.262,365.262 189.5,364.5C 188.5,364.167 187.833,363.5 187.5,362.5C 186.829,361.153 186.829,359.986 187.5,359C 185.951,357.786 184.785,356.286 184,354.5C 182.989,353.663 181.822,353.33 180.5,353.5C 181.562,351.901 181.562,350.234 180.5,348.5 Z"/></g>
<g><path style="opacity:1" fill="#bba370" d="M 265.5,362.5 C 262.45,364.101 259.116,365.101 255.5,365.5C 252.505,365.294 249.838,365.96 247.5,367.5C 244.833,367.833 242.167,368.167 239.5,368.5C 240.907,366.386 242.907,364.886 245.5,364C 246.793,363.51 248.127,363.343 249.5,363.5C 254.777,363.753 260.11,363.42 265.5,362.5 Z"/></g>
<g><path style="opacity:1" fill="#2f241a" d="M 189.5,364.5 C 191.262,365.262 192.262,366.596 192.5,368.5C 190.738,367.738 189.738,366.404 189.5,364.5 Z"/></g>
<g><path style="opacity:1" fill="#1a1106" d="M 255.5,365.5 C 253.095,366.768 250.428,367.435 247.5,367.5C 249.838,365.96 252.505,365.294 255.5,365.5 Z"/></g>
<g><path style="opacity:1" fill="#23180f" d="M 247.5,367.5 C 244.146,369.258 240.479,370.258 236.5,370.5C 237.5,369.833 238.5,369.167 239.5,368.5C 242.167,368.167 244.833,367.833 247.5,367.5 Z"/></g>
<g><path style="opacity:1" fill="#201605" d="M 193.5,369.5 C 194.833,370.167 195.833,371.167 196.5,372.5C 196.5,372.833 196.5,373.167 196.5,373.5C 194.738,372.738 193.738,371.404 193.5,369.5 Z"/></g>
<g><path style="opacity:1" fill="#9a7439" d="M 239.5,368.5 C 238.5,369.167 237.5,369.833 236.5,370.5C 232.786,370.59 229.452,371.59 226.5,373.5C 225.081,374.451 223.415,374.784 221.5,374.5C 217.554,374.444 213.721,375.111 210,376.5C 206.119,375.992 202.285,375.325 198.5,374.5C 197.508,374.672 196.842,374.338 196.5,373.5C 196.5,373.167 196.5,372.833 196.5,372.5C 197.167,372.5 197.833,372.5 198.5,372.5C 201.418,373.454 204.418,374.121 207.5,374.5C 215.275,373.14 222.942,371.306 230.5,369C 233.482,368.502 236.482,368.335 239.5,368.5 Z"/></g>
<g><path style="opacity:1" fill="#231508" d="M 236.5,370.5 C 233.45,372.101 230.116,373.101 226.5,373.5C 229.452,371.59 232.786,370.59 236.5,370.5 Z"/></g>
<g><path style="opacity:1" fill="#452f18" d="M 198.5,374.5 C 202.285,375.325 206.119,375.992 210,376.5C 213.721,375.111 217.554,374.444 221.5,374.5C 217.755,376.198 213.755,377.532 209.5,378.5C 206.167,377.667 202.833,376.833 199.5,376C 198.944,375.617 198.611,375.117 198.5,374.5 Z"/></g>
</svg>
